<svg id="Layer_1" data-name="Layer 1" xmlns="http://www.w3.org/2000/svg" viewBox="0 0 128 128"><defs><style>.cls-1{fill:#231f20;}.cls-2{fill:red;}.cls-3,.cls-4{fill:none;stroke:#231f20;stroke-miterlimit:10;}.cls-4{stroke-width:0.5px;}.cls-5,.cls-6{font-size:4px;}.cls-5,.cls-7,.cls-9{font-family:Helvetica;}.cls-6{font-family:Helvetica-Bold, Helvetica;font-weight:700;}.cls-7{font-weight:400;}.cls-8{letter-spacing:-0.04em;}.cls-9{font-size:12px;fill:#ff0013;}</style></defs><polygon class="cls-1" points="36.19 68.99 33.69 77.26 38.68 77.26 36.19 68.99"/><circle class="cls-2" cx="36.19" cy="52.97" r="2.23"/><rect class="cls-3" x="85.61" y="51.26" width="11.05" height="11.05"/><rect class="cls-3" x="85.61" y="64" width="11.05" height="11.05"/><rect class="cls-3" x="72.78" y="64" width="11.05" height="11.05"/><rect class="cls-3" x="98.45" y="64" width="11.05" height="11.05"/><polyline class="cls-3" points="79.82 66.5 76.79 69.53 79.82 72.56"/><polyline class="cls-3" points="88.11 68.01 91.14 71.04 94.17 68.01"/><polyline class="cls-3" points="102.46 72.56 105.49 69.53 102.46 66.5"/><polyline class="cls-3" points="94.17 58.3 91.14 55.27 88.11 58.3"/><line class="cls-4" x1="91.14" y1="38.67" x2="91.14" y2="48.51"/><polygon class="cls-1" points="91.14 37.22 90.3 39.26 91.14 38.77 91.97 39.26 91.14 37.22"/><line class="cls-4" x1="36.19" y1="57.89" x2="36.19" y2="67.74"/><polygon class="cls-1" points="36.19 56.45 35.35 58.49 36.19 58 37.02 58.49 36.19 56.45"/><line class="cls-4" x1="91.14" y1="89.06" x2="91.14" y2="79.22"/><polygon class="cls-1" points="91.14 90.51 91.97 88.47 91.14 88.95 90.3 88.47 91.14 90.51"/><text class="cls-5" transform="translate(83.83 34.29)">Acclerate</text><text class="cls-5" transform="translate(3.94 56.45)">Drive the ship<tspan x="0.11" y="4.8">into the dot to</tspan><tspan x="-0.78" y="9.6">recieve a point</tspan></text><text class="cls-5" transform="translate(13.07 12.6)">If you fail to get a point<tspan x="-1.55" y="4.8">before the timer reaches</tspan><tspan x="3.79" y="9.6">0 its GAME OVER</tspan></text><text class="cls-6" transform="translate(57.56 111.46)">GOAL:<tspan class="cls-7"><tspan x="-17.79" y="4.8">Survive as long as possible</tspan></tspan></text><text class="cls-5" transform="translate(83.83 95.72)">Decelerate</text><text class="cls-5" transform="translate(118.75 83.83)"><tspan class="cls-8">T</tspan><tspan x="2.3" y="0">urn</tspan><tspan x="0.15" y="4.8">right</tspan></text><text class="cls-5" transform="translate(56.31 82.97)"><tspan class="cls-8">T</tspan><tspan x="2.3" y="0">urn</tspan><tspan x="1.37" y="4.8">left</tspan></text><path class="cls-4" d="M112.43,69.53s9.3-1,10.27,7.18"/><polygon class="cls-1" points="122.78 78.16 121.81 76.18 122.68 76.61 123.48 76.07 122.78 78.16"/><path class="cls-4" d="M70.71,69.53s-9.3-1-10.27,7.18"/><polygon class="cls-1" points="60.35 78.16 59.66 76.07 60.46 76.61 61.32 76.18 60.35 78.16"/><text class="cls-9" transform="translate(60.66 11.71)">1</text><path class="cls-4" d="M56.37,19.22S62.7,19,63.92,15"/><polygon class="cls-1" points="64.13 13.64 64.59 15.74 63.87 15.13 62.98 15.46 64.13 13.64"/></svg>